<svg xmlns="http://www.w3.org/2000/svg" xmlns:xlink="http://www.w3.org/1999/xlink" version="1.1" x="0px" y="0px" viewBox="0 0 100 125" enable-background="new 0 0 100 100" xml:space="preserve"><g><path d="M50,10.628c-21.71,0-39.372,17.662-39.372,39.372S28.29,89.372,50,89.372S89.372,71.709,89.372,50S71.71,10.628,50,10.628z    M17.364,63.632c-1.177-2.807-1.995-5.799-2.412-8.917c1.823,1.257,3.762,2.399,5.785,3.44l-2.097,6.331   C18.206,64.21,17.785,63.921,17.364,63.632z M24.382,59.871c2.528,1.081,5.171,1.997,7.902,2.745l-0.816,6.04l-1.165,1.33   c-2.843-0.946-5.567-2.097-8.13-3.448L24.382,59.871z M48,73.067c-4.416-0.134-8.734-0.716-12.86-1.707l0.132-0.977l5.313-6.065   c2.437,0.34,4.913,0.551,7.415,0.623V73.067z M34.602,75.341c4.311,1.007,8.808,1.595,13.398,1.726v8.244   c-5.102-0.286-9.915-1.663-14.219-3.893L34.602,75.341z M30.046,79.186c-0.517-0.354-1.022-0.724-1.518-1.105l1.971-2.25   L30.046,79.186z M52,77.067c4.59-0.132,9.087-0.719,13.398-1.726l0.821,6.077c-4.303,2.23-9.116,3.607-14.218,3.893V77.067z    M52,73.067v-8.125c4.023-0.117,7.983-0.579,11.808-1.375l1.052,7.794C60.734,72.352,56.416,72.933,52,73.067z M67.716,62.616   c2.73-0.748,5.374-1.664,7.902-2.745l2.209,6.667c-2.845,1.499-5.89,2.747-9.075,3.747L67.716,62.616z M82.636,63.633   c-0.421,0.289-0.843,0.577-1.276,0.854l-2.097-6.331c2.023-1.041,3.962-2.183,5.785-3.44   C84.631,57.833,83.814,60.825,82.636,63.633z M85.359,49.484C76.26,56.799,63.46,60.982,50,60.982c-2.094,0-4.169-0.113-6.22-0.311   l4.779-5.455c0.412,0.277,0.907,0.439,1.441,0.439c1.428,0,2.586-1.158,2.586-2.586c0-0.656-0.252-1.248-0.654-1.703l5.064-5.78   c1.947,3.522,5.695,5.91,10.005,5.91c6.311,0,11.427-5.116,11.427-11.427c0-4.846-3.021-8.977-7.279-10.638l3.867-4.415   C81.297,31.306,85.221,39.945,85.359,49.484z M50,14.628c8.324,0,15.98,2.897,22.029,7.727l-5.53,6.312   c-6.077,0.264-10.925,5.26-10.925,11.401c0,0.342,0.022,0.678,0.051,1.012L39.023,60.032c-9.298-1.615-17.806-5.261-24.382-10.547   C14.919,30.218,30.669,14.628,50,14.628z M21.228,70.536c2.001,1.007,4.085,1.904,6.239,2.687l-1.97,2.249   C23.927,73.963,22.498,72.311,21.228,70.536z M69.954,79.187l-0.659-4.88c3.315-1,6.487-2.265,9.477-3.769   C76.359,73.907,73.375,76.841,69.954,79.187z"/><circle cx="33" cy="40.069" r="11.426"/></g><text x="0" y="115" fill="#000000" font-size="5px" font-weight="bold" font-family="'Helvetica Neue', Helvetica, Arial-Unicode, Arial, Sans-serif">Created by Juan Pablo Pérez Beltrán</text><text x="0" y="120" fill="#000000" font-size="5px" font-weight="bold" font-family="'Helvetica Neue', Helvetica, Arial-Unicode, Arial, Sans-serif">from the Noun Project</text></svg>